<svg data-v-423bf9ae="" xmlns="http://www.w3.org/2000/svg" viewBox="0 0 53.999997080588884 60" class="font"><!----><!----><defs data-v-423bf9ae=""><linearGradient data-v-423bf9ae="" gradientTransform="rotate(25)" id="ef1ff7b8-4693-4da6-a890-fa93bb91e402" x1="0%" y1="0%" x2="100%" y2="0%"><stop data-v-423bf9ae="" offset="0%" style="stop-color: rgb(32, 72, 79); stop-opacity: 1;"></stop><stop data-v-423bf9ae="" offset="100%" style="stop-color: rgb(78, 155, 171); stop-opacity: 1;"></stop></linearGradient></defs><g data-v-423bf9ae="" id="bbe8eb2e-585d-453d-bf34-28d9ee2562a3" fill="url(#ef1ff7b8-4693-4da6-a890-fa93bb91e402)" transform="matrix(6.1224488604322,0,0,6.1224488604322,-4.714286430236584,-20.142856994106204)"><path d="M1.15 13.09L1.15 13.09Q0.99 13.09 0.88 12.98L0.88 12.98L0.88 12.98Q0.77 12.87 0.77 12.71L0.77 12.71L0.77 3.67L0.77 3.67Q0.77 3.51 0.88 3.40L0.88 3.40L0.88 3.40Q0.99 3.29 1.15 3.29L1.15 3.29L3.36 3.29L3.36 3.29Q3.75 3.29 3.93 3.61L3.93 3.61L6.30 7.49L6.30 3.67L6.30 3.67Q6.30 3.51 6.41 3.40L6.41 3.40L6.41 3.40Q6.52 3.29 6.68 3.29L6.68 3.29L9.21 3.29L9.21 3.29Q9.37 3.29 9.48 3.40L9.48 3.40L9.48 3.40Q9.59 3.51 9.59 3.67L9.59 3.67L9.59 12.71L9.59 12.71Q9.59 12.87 9.48 12.98L9.48 12.98L9.48 12.98Q9.37 13.09 9.21 13.09L9.21 13.09L7 13.09L7 13.09Q6.76 13.09 6.64 12.99L6.64 12.99L6.64 12.99Q6.51 12.89 6.43 12.77L6.43 12.77L4.06 9.20L4.06 12.71L4.06 12.71Q4.06 12.87 3.95 12.98L3.95 12.98L3.95 12.98Q3.84 13.09 3.68 13.09L3.68 13.09L1.15 13.09Z"></path></g><!----><!----></svg>